<?xml version="1.0" encoding="utf-8"?>
<!-- Generator: Adobe Illustrator 23.1.0, SVG Export Plug-In . SVG Version: 6.00 Build 0)  -->
<svg version="1.1" xmlns="http://www.w3.org/2000/svg" xmlns:xlink="http://www.w3.org/1999/xlink" x="0px" y="0px"
	 viewBox="0 0 800 800" enable-background="new 0 0 800 800" xml:space="preserve">
<g id="img" display="none">
	
		<image display="inline" overflow="visible" width="1000" height="1000" xlink:href="../../../../../Downloads/borg-cube.jpg"  transform="matrix(0.775 0 0 0.775 9 14)">
	</image>
</g>
<g id="cube-left">
	<polygon stroke="#000000" stroke-miterlimit="10" points="48,128.9 397.9,213.3 397.9,783.1 81.3,577.6 	"/>
</g>
<g id="cube-right">
	<polygon fill="#181818" stroke="#000000" stroke-miterlimit="10" points="397.9,213.3 764.4,138.8 725.6,592 397.9,783.1 	"/>
</g>
<g id="cube-top">
	<polygon fill="#282828" stroke="#000000" stroke-miterlimit="10" points="48,128.9 390.1,81.1 764.4,138.8 397.9,213.3 	"/>
</g>
<g id="texture">
	
		<rect x="213.4" y="237.7" transform="matrix(0.9716 0.2367 -0.2367 0.9716 66.4655 -58.0612)" fill="#53B94E" width="123.3" height="20.1"/>
	
		<rect x="536.8" y="328.1" transform="matrix(0.9584 -0.2855 0.2855 0.9584 -71.5039 177.3302)" fill="#53B94E" width="71.5" height="11.7"/>
	
		<rect x="77.6" y="461.2" transform="matrix(-1.836970e-16 1 -1 -1.836970e-16 594.0952 338.4569)" fill="#53B94E" width="100.5" height="10.1"/>
	
		<rect x="275.3" y="415.3" transform="matrix(-1.836970e-16 1 -1 -1.836970e-16 718.2047 117.4636)" fill="#53B94E" width="50.2" height="5"/>
</g>
</svg>
