<?xml version="1.0" encoding="utf-8"?>
<!-- Generator: Adobe Illustrator 23.1.0, SVG Export Plug-In . SVG Version: 6.00 Build 0)  -->
<svg version="1.1" xmlns="http://www.w3.org/2000/svg" xmlns:xlink="http://www.w3.org/1999/xlink" x="0px" y="0px"
	 viewBox="0 0 800 800" enable-background="new 0 0 800 800" xml:space="preserve">
<g id="img" display="none">
	
		<image display="inline" overflow="visible" width="570" height="555" xlink:href="../../../../../Downloads/tng-combadge.jpg"  transform="matrix(1.3421 0 0 1.3421 22 16.9211)">
	</image>
</g>
<g id="middle">
	<path stroke="#000000" stroke-miterlimit="10" d="M388,63c0,0,19-53,47,0c0,0,118,247,214,662c0,0,1,21-25,0c0,0-87-217-116-237
		c0,0-45-82-126-3c0,0-112,119-186,243c0,0-13,17-25-4C171,724,287,233,388,63z"/>
</g>
<g id="ring">
	<ellipse fill="none" stroke="#000000" stroke-width="23" stroke-miterlimit="10" cx="404.5" cy="454.9" rx="339" ry="212"/>
</g>
</svg>
