<?xml version="1.0" encoding="utf-8"?>
<!-- Generator: Adobe Illustrator 23.1.0, SVG Export Plug-In . SVG Version: 6.00 Build 0)  -->
<svg version="1.1" xmlns="http://www.w3.org/2000/svg" xmlns:xlink="http://www.w3.org/1999/xlink" x="0px" y="0px"
	 viewBox="0 0 800 800" enable-background="new 0 0 800 800" xml:space="preserve">
<g id="img" display="none">
	
		<image display="inline" overflow="visible" width="461" height="357" xlink:href="../../../../../Downloads/locutus.png"  transform="matrix(1.7505 0 0 1.7505 -3.5 94)">
	</image>
</g>
<g id="neck">
	<polygon fill="#B7C4B3" stroke="#000000" stroke-width="8" stroke-miterlimit="10" points="305.3,493.6 305.3,643 522,618 
		517,486.9 	"/>
</g>
<g id="head">
	<path fill="#B7C4B3" stroke="#000000" stroke-width="8" stroke-miterlimit="10" d="M289,167c0,0,110-137,230,0c0,0,41,51,27,135
		c0,0,35-40,15,61c0,0-12,79-28,51l2,40c0,0,5,24-41,48l-34,25c0,0-32,32-108,0l-74-53L289,167z"/>
</g>
<g id="headgear">
	<path fill="#0F1410" d="M378.3,109.4V182c0,0,152.7-16,137.7,84c0,0,10,17-59,0c0,0-30,36.3-26,57.7l16.7,21.3c0,0,26.5,52-25.1,29
		c0,0-45.6-13-58.6,16c0,0-41-6-40,76l-46-19v27l-15-16c0,0-25-0.1-15-51.5c0,0-29-52.5,9-166.5C257,240,261.7,135.9,378.3,109.4z"
		/>
</g>
<g id="headgear-bits">
	
		<polygon fill="#0F1410" stroke="#000000" stroke-width="8" stroke-linecap="round" stroke-linejoin="round" stroke-miterlimit="10" points="
		250.4,449.5 220,442 220,400 250.4,400 	"/>
	
		<path fill="#BB2025" stroke="#000000" stroke-width="8" stroke-linecap="round" stroke-linejoin="round" stroke-miterlimit="10" d="
		M235.2,346c0,0-35.2,18.3-32.2-22.3s34.4-16.7,34.4-16.7L235.2,346z"/>
	<polygon fill="#0F1410" points="243.2,291.7 212,291.7 212,250 250.4,250 	"/>
	
		<path fill="#0F1410" stroke="#000000" stroke-width="8" stroke-linecap="round" stroke-linejoin="round" stroke-miterlimit="10" d="
		M257.7,233.1L231.2,216c0,0-7-27.9,19.2-32l20.4,6.9L257.7,233.1z"/>
</g>
<g id="headgear-wires">
	<path fill="none" stroke="#000000" stroke-width="8" stroke-linecap="round" stroke-linejoin="round" stroke-miterlimit="10" d="
		M212,270.9c0,0-235.2,211.7,56.4,192.9"/>
	<path fill="none" stroke="#000000" stroke-width="8" stroke-linecap="round" stroke-linejoin="round" stroke-miterlimit="10" d="
		M235.2,192.1c0,0-100,60.9-15.1,227.9"/>
	<path fill="none" stroke="#000000" stroke-width="8" stroke-linecap="round" stroke-linejoin="round" stroke-miterlimit="10" d="
		M210.6,262c0,0-73.4,44-61.6,138c0,0-7,89-87,135c0,0-47,29,33,18c0,0,35-9,131,25"/>
	<path fill="none" stroke="#000000" stroke-width="8" stroke-linecap="round" stroke-linejoin="round" stroke-miterlimit="10" d="
		M487.6,136.9c0,0,351.4,78.1,47.4,317.1"/>
</g>
<g id="face">
	
		<path fill="#B7C4B3" stroke="#000000" stroke-width="8" stroke-linecap="round" stroke-linejoin="round" stroke-miterlimit="10" d="
		M387.3,336l5-30c0,0-43-20-68-20c0,0-52,16,0,50H387.3z"/>
	<path fill="none" stroke="#000000" stroke-width="8" stroke-linecap="round" stroke-linejoin="round" stroke-miterlimit="10" d="
		M359,454c0,0,66-6,104,0"/>
	<path fill="none" stroke="#000000" stroke-width="8" stroke-linecap="round" stroke-linejoin="round" stroke-miterlimit="10" d="
		M377.2,400c0,0,19.8,16,70.8,0c0,0,7-26-10-45"/>
	<path stroke="#000000" stroke-width="8" stroke-linecap="round" stroke-linejoin="round" stroke-miterlimit="10" d="M449.4,321.8
		c0,0,26.6,1.4,48.6-3.5s-45-7.3-45-7.3L449.4,321.8z"/>
	<path stroke="#000000" stroke-width="8" stroke-linecap="round" stroke-linejoin="round" stroke-miterlimit="10" d="M377.2,321.8
		c0,0-26.6,1.4-48.6-3.5s45-7.3,45-7.3L377.2,321.8z"/>
	<path stroke="#000000" stroke-width="8" stroke-linecap="round" stroke-linejoin="round" stroke-miterlimit="10" d="M456,291.7
		c0,0,11.9-10.3,46.4,0"/>
</g>
<g id="torso">
	<path fill="#0F1410" d="M305.3,519c0,0-4.5,36-54.9,59L101,599c0,0-91,20-101,75v44.9h803.5L800,657c0,0-62-77-147-79
		c0,0-100.9-9.3-136-91.1l-6,39.1c0,0-16.3,48-111,58C400,584,274.6,582,305.3,519z"/>
</g>
</svg>
