<?xml version="1.0" encoding="utf-8"?>
<!-- Generator: Adobe Illustrator 23.1.0, SVG Export Plug-In . SVG Version: 6.00 Build 0)  -->
<svg version="1.1" xmlns="http://www.w3.org/2000/svg" xmlns:xlink="http://www.w3.org/1999/xlink" x="0px" y="0px"
	 viewBox="0 0 800 800" enable-background="new 0 0 800 800" xml:space="preserve">
<g id="img" display="none">
	
		<image display="inline" overflow="visible" width="510" height="336" xlink:href="../../../../../Downloads/picard-celebrate.jpg"  transform="matrix(1.8686 0 0 1.8686 -112 66)">
	</image>
</g>
<g id="neck">
	
		<path fill="#DF9684" stroke="#000000" stroke-width="8" stroke-linecap="round" stroke-linejoin="round" stroke-miterlimit="10" d="
		M329.3,252.3l3.4,52.9l78.3,53.8c0,0,70.5-58.4,70.2-67.3S470,252.3,470,252.3H329.3z"/>
</g>
<g id="head">
	
		<path fill="#DF9684" stroke="#000000" stroke-width="8" stroke-linecap="round" stroke-linejoin="round" stroke-miterlimit="10" d="
		M439.7,273.7c0,0-40.8,24.3-82.5,0l-31.3-17l-4-2.2c0,0-9,2.6-10.2-43.6c0,0-30.7,17.9-29.5-32c0,0-10.2-48.7,14.1-25.6
		c0,0-20.5-90.1,44.8-123c0,0,39.7-34.6,98.7,0c0,0,74.3,50,44.8,107.6c0,0,30.7-20.5,16.7,38.4c0,0-5.1,47.4-19.2,25.6
		C481.9,202,485.9,263,439.7,273.7z"/>
</g>
<g id="shirt-black">
	<path stroke="#000000" stroke-width="8" stroke-miterlimit="10" d="M325.8,284.6c0,0,12.6,35-39.3,49.4l-35.9,11.8l-10.2,17
		l-89,8.8c0,0-47.6,20.9-39.8,64.2l84.6,192.8l5.8,156.4h439.2V616.8L604.1,541l-5.2,174.5L521,649.1l-248.7,122l-40.5-268.8
		l26.9-135l285.2-30.5l15.8,19.7l71.9-16.9c0,0,54.8-19,79.8,51.5c0,0-8.5-87.1-101.8-88.1l4,23.5L557.5,383
		c0,0-29.1-78.8-25.8-78.8c3.3,0-33.8,3.8-58.8-30.7c0,0-59.5,19.2-61.9,57.7l-38.3-30.7L325.8,284.6z"/>
</g>
<g id="shirt-red">
	<path fill="#740F28" stroke="#000000" stroke-width="8" stroke-miterlimit="10" d="M257.7,371.4l284.4-31.7l17.4,26.9l67.6-19.4
		c0,0,69.6-25,89,69.2l13.6,85.6l-129-8.2L599.2,705L521,649.1L279.9,767.5l-47.2-268.9L257.7,371.4z"/>
</g>
<g id="insignia">
	<g>
		<g id="ring_1_">
			
				<ellipse transform="matrix(0.9951 -9.888932e-02 9.888932e-02 0.9951 -41.813 54.7881)" fill="none" stroke="#A3773D" stroke-width="9" stroke-miterlimit="10" cx="531.8" cy="449.2" rx="35" ry="11.6"/>
		</g>
		<g id="middle_1_">
			<path fill="#E8AC55" stroke="#1B150D" stroke-width="3" stroke-miterlimit="10" d="M528.5,407.9c0,0,1.5-5.9,5.1-0.5
				c0,0,15.4,25.4,30.2,69c0,0,0.3,2.3-2.7,0.3c0,0-11.7-22.5-15-24.3c0,0-5.7-8.4-13.6,1c0,0-10.8,14-17.4,28.2c0,0-1.2,2-2.7-0.2
				C512.2,481.4,519.4,427.3,528.5,407.9z"/>
		</g>
	</g>
</g>
<g id="arms">
	
		<path fill="#DF9684" stroke="#000000" stroke-width="8" stroke-linecap="round" stroke-linejoin="round" stroke-miterlimit="10" d="
		M177,317.3c0,0-11.5-62.8-23.1-91l49.1-47.8c0,0,17.6-0.6,19.7,10.1l-34.2,23.6c0,0,31.2-29.9,54.7-19.8l-0.1,13.9l-12.8,2.2
		c0,0,42-7.8,24,8.9c0,0,36.7,8.4,5.3,29.2c0,0,9.5,67.4-13.5,96l16.7,11.9c-8.1,60.5-51,236.6-66.6,274.2
		c0,0-116.6,119.2-140.9-52.5C55.3,576.1,60.9,514.6,177,317.3z"/>
	<path fill="#DF9684" stroke="#000000" stroke-width="8" stroke-miterlimit="10" d="M613.5,326.7c0,0-17.1-27.8,19.2-106.3
		c0,0,0.9-24.8-34.2-46.6c0,0-31.1-10.9-2.1,13.5c0,0-38.3-26.3-22.3,2.2c0,0-32.1-12.8-23.1,6.2c0,0-28.5-1.8-16.1,21.7
		c0,0-14.1,114.9,24.8,139.2l-25.2,12.8l94.4,237.5c0,0,120.9,111.5,121.7-73.5L613.5,326.7z"/>
</g>
<g id="sleeves">
	<path fill="#740F28" stroke="#000000" stroke-width="8" stroke-miterlimit="10" d="M177,317.3l84.9,36.5l-65.7,274.8
		c0,0-120.4,122.4-140.9-52.5L177,317.3z"/>
	<path fill="#740F28" stroke="#000000" stroke-width="8" stroke-miterlimit="10" d="M534.5,369.4l79-42.7l137.1,206.7
		c0,0,11.4,171-118.7,76.1L534.5,369.4z"/>
</g>
<g id="face">
	
		<line fill="none" stroke="#000000" stroke-width="8" stroke-linecap="round" stroke-linejoin="round" stroke-miterlimit="10" x1="320.5" y1="198.8" x2="344.8" y2="262.2"/>
	<path fill="none" stroke="#000000" stroke-width="8" stroke-linecap="round" stroke-linejoin="round" stroke-miterlimit="10" d="
		M463.4,198.8l-14,70.1L463.4,198.8z"/>
	
		<path fill="#FFFFFF" stroke="#000000" stroke-width="8" stroke-linecap="round" stroke-linejoin="round" stroke-miterlimit="10" d="
		M350,213.5c0,0,53.8-11.5,90.3-4.5C440.3,209,405.7,239.1,350,213.5z"/>
	<path fill="none" stroke="#000000" stroke-width="8" stroke-linecap="round" stroke-linejoin="round" stroke-miterlimit="10" d="
		M401.7,125.8l15.3,45.6c0,0-10,23.3-47.8,7.1"/>
	<path stroke="#000000" stroke-width="5" stroke-linecap="round" stroke-linejoin="round" stroke-miterlimit="10" d="M372.7,135.2
		l-46.9,2.5C325.8,137.7,364.4,122.3,372.7,135.2z"/>
	<path stroke="#000000" stroke-width="5" stroke-linecap="round" stroke-linejoin="round" stroke-miterlimit="10" d="M419,133.2
		l46.9,2.5C465.9,135.7,427.3,120.2,419,133.2z"/>
	<path fill="none" stroke="#000000" stroke-width="8" stroke-linecap="round" stroke-linejoin="round" stroke-miterlimit="10" d="
		M417,113.6c0,0,16.3-8.3,39.4,3.2"/>
	<path fill="none" stroke="#000000" stroke-width="8" stroke-linecap="round" stroke-linejoin="round" stroke-miterlimit="10" d="
		M329.3,116.6c0,0,14.9-10.8,39.4-2.9"/>
</g>
</svg>
